<?xml version="1.0" encoding="UTF-8"?><svg xmlns="http://www.w3.org/2000/svg" height="425.2pt" version="1.1" viewBox="0 0 425.2 425.2" width="425.2pt">
 <g id="surface1">
  <g><path d="m178.83 359.95c0 4.37-24.84 7.91-55.47 7.91-30.641 0-55.481-3.54-55.481-7.91v-23.39h110.95v23.39" fill="#34455b"/></g>
  <g><path d="m178.83 359.95v-1.69c-62.21 9.99-90.225-9.88-100.99-21.7h-9.961v23.39c0 4.37 24.84 7.91 55.481 7.91 30.63 0 55.47-3.54 55.47-7.91" fill="#2a3648"/></g>
  <g><path d="m178.83 336.56c0 4.37-24.84 7.9-55.47 7.9-30.641 0-55.481-3.53-55.481-7.9 0-4.36 24.84-7.9 55.481-7.9 30.63 0 55.47 3.54 55.47 7.9" fill="#486e81"/></g>
  <g><path d="m170.19 334.6c0 3.24-20.97 5.86-46.83 5.86-25.872 0-46.84-2.62-46.84-5.86l5.675-7.59h82.325l5.67 7.59" fill="#507688"/></g>
  <g><path d="m164.52 327.01c0 3.24-18.43 5.87-41.16 5.87-22.74 0-41.165-2.63-41.165-5.87s18.425-5.87 41.165-5.87c22.73 0 41.16 2.63 41.16 5.87" fill="#7299a9"/></g>
  <g><path d="m178.83 332.14c0 4.36-24.84 7.9-55.47 7.9-30.641 0-55.481-3.54-55.481-7.9v-23.4h110.95v23.4" fill="#34455b"/></g>
  <g><path d="m178.83 332.14v-1.7c-62.21 10-90.225-9.88-100.99-21.7h-9.961v23.4c0 4.36 24.84 7.9 55.481 7.9 30.63 0 55.47-3.54 55.47-7.9" fill="#2a3648"/></g>
  <g><path d="m178.83 308.74c0 4.37-24.84 7.91-55.47 7.91-30.641 0-55.481-3.54-55.481-7.91 0-4.36 24.84-7.9 55.481-7.9 30.63 0 55.47 3.54 55.47 7.9" fill="#486e81"/></g>
  <g><path d="m170.19 306.78c0 3.24-20.97 5.86-46.83 5.86-25.872 0-46.84-2.62-46.84-5.86l5.675-7.59h82.325l5.67 7.59" fill="#507688"/></g>
  <g><path d="m164.52 299.19c0 3.24-18.43 5.86-41.16 5.86-22.74 0-41.165-2.62-41.165-5.86s18.425-5.86 41.165-5.86c22.73 0 41.16 2.62 41.16 5.86" fill="#7299a9"/></g>
  <g><path d="m178.83 304.32c0 4.36-24.84 7.9-55.47 7.9-30.641 0-55.481-3.54-55.481-7.9v-23.39h110.95v23.39" fill="#34455b"/></g>
  <g><path d="m178.83 304.32v-1.7c-62.21 10-90.225-9.88-100.99-21.69h-9.961v23.39c0 4.36 24.84 7.9 55.481 7.9 30.63 0 55.47-3.54 55.47-7.9" fill="#2a3648"/></g>
  <g><path d="m178.83 280.93c0 4.36-24.84 7.9-55.47 7.9-30.641 0-55.481-3.54-55.481-7.9 0-4.37 24.84-7.91 55.481-7.91 30.63 0 55.47 3.54 55.47 7.91" fill="#486e81"/></g>
  <g><path d="m170.19 278.96c0 3.24-20.97 5.86-46.83 5.86-25.872 0-46.84-2.62-46.84-5.86l5.675-7.58h82.325l5.67 7.58" fill="#507688"/></g>
  <g><path d="m164.52 271.38c0 3.23-18.43 5.86-41.16 5.86-22.74 0-41.165-2.63-41.165-5.86 0-3.24 18.425-5.87 41.165-5.87 22.73 0 41.16 2.63 41.16 5.87" fill="#7299a9"/></g>
  <g><path d="m178.83 278.08c0 4.37-24.84 7.9-55.47 7.9-30.641 0-55.481-3.53-55.481-7.9v-23.39h110.95v23.39" fill="#34455b"/></g>
  <g><path d="m178.83 278.08v-1.69c-62.21 9.99-90.225-9.88-100.99-21.7h-9.961v23.39c0 4.37 24.84 7.9 55.481 7.9 30.63 0 55.47-3.53 55.47-7.9" fill="#2a3648"/></g>
  <g><path d="m178.83 254.69c0 4.37-24.84 7.9-55.47 7.9-30.641 0-55.481-3.53-55.481-7.9s24.84-7.9 55.481-7.9c30.63 0 55.47 3.53 55.47 7.9" fill="#486e81"/></g>
  <g><path d="m170.19 252.73c0 3.23-20.97 5.86-46.83 5.86-25.872 0-46.84-2.63-46.84-5.86l5.675-7.59h82.325l5.67 7.59" fill="#34455b"/></g>
  <g><path d="m164.52 245.14c0 3.24-18.43 5.86-41.16 5.86-22.74 0-41.165-2.62-41.165-5.86s18.425-5.86 41.165-5.86c22.73 0 41.16 2.62 41.16 5.86" fill="#486e81"/></g>
  <g><path d="m357.32 359.95c0 4.37-24.84 7.91-55.47 7.91-30.65 0-55.48-3.54-55.48-7.91v-23.39h110.95v23.39" fill="#34455b"/></g>
  <g><path d="m357.32 359.95v-1.69c-62.21 9.99-90.23-9.88-101-21.7h-9.95v23.39c0 4.37 24.83 7.91 55.48 7.91 30.63 0 55.47-3.54 55.47-7.91" fill="#2a3648"/></g>
  <g><path d="m357.32 336.56c0 4.37-24.84 7.9-55.47 7.9-30.65 0-55.48-3.53-55.48-7.9 0-4.36 24.83-7.9 55.48-7.9 30.63 0 55.47 3.54 55.47 7.9" fill="#486e81"/></g>
  <g><path d="m348.68 334.6c0 3.24-20.97 5.86-46.83 5.86-25.87 0-46.84-2.62-46.84-5.86l5.67-7.59h82.32l5.68 7.59" fill="#507688"/></g>
  <g><path d="m343 327.01c0 3.24-18.43 5.87-41.15 5.87-22.74 0-41.17-2.63-41.17-5.87s18.43-5.87 41.17-5.87c22.72 0 41.15 2.63 41.15 5.87" fill="#7299a9"/></g>
  <g><path d="m357.32 332.14c0 4.36-24.84 7.9-55.47 7.9-30.65 0-55.48-3.54-55.48-7.9v-23.4h110.95v23.4" fill="#34455b"/></g>
  <g><path d="m357.32 332.14v-1.7c-62.21 10-90.23-9.88-101-21.7h-9.95v23.4c0 4.36 24.83 7.9 55.48 7.9 30.63 0 55.47-3.54 55.47-7.9" fill="#2a3648"/></g>
  <g><path d="m357.32 308.74c0 4.37-24.84 7.91-55.47 7.91-30.65 0-55.48-3.54-55.48-7.91 0-4.36 24.83-7.9 55.48-7.9 30.63 0 55.47 3.54 55.47 7.9" fill="#486e81"/></g>
  <g><path d="m348.68 306.78c0 3.24-20.97 5.86-46.83 5.86-25.87 0-46.84-2.62-46.84-5.86l5.67-7.59h82.32l5.68 7.59" fill="#507688"/></g>
  <g><path d="m343 299.19c0 3.24-18.43 5.86-41.15 5.86-22.74 0-41.17-2.62-41.17-5.86s18.43-5.86 41.17-5.86c22.72 0 41.15 2.62 41.15 5.86" fill="#7299a9"/></g>
  <g><path d="m357.32 304.32c0 4.36-24.84 7.9-55.47 7.9-30.65 0-55.48-3.54-55.48-7.9v-23.39h110.95v23.39" fill="#34455b"/></g>
  <g><path d="m357.32 304.32v-1.7c-62.21 10-90.23-9.88-101-21.69h-9.95v23.39c0 4.36 24.83 7.9 55.48 7.9 30.63 0 55.47-3.54 55.47-7.9" fill="#2a3648"/></g>
  <g><path d="m357.32 280.93c0 4.36-24.84 7.9-55.47 7.9-30.65 0-55.48-3.54-55.48-7.9 0-4.37 24.83-7.91 55.48-7.91 30.63 0 55.47 3.54 55.47 7.91" fill="#486e81"/></g>
  <g><path d="m348.68 278.96c0 3.24-20.97 5.86-46.83 5.86-25.87 0-46.84-2.62-46.84-5.86l5.67-7.58h82.32l5.68 7.58" fill="#507688"/></g>
  <g><path d="m343 271.38c0 3.23-18.43 5.86-41.15 5.86-22.74 0-41.17-2.63-41.17-5.86 0-3.24 18.43-5.87 41.17-5.87 22.72 0 41.15 2.63 41.15 5.87" fill="#7299a9"/></g>
  <g><path d="m357.32 278.08c0 4.37-24.84 7.9-55.47 7.9-30.65 0-55.48-3.53-55.48-7.9v-23.39h110.95v23.39" fill="#34455b"/></g>
  <g><path d="m357.32 278.08v-1.69c-62.21 9.99-90.23-9.88-101-21.7h-9.95v23.39c0 4.37 24.83 7.9 55.48 7.9 30.63 0 55.47-3.53 55.47-7.9" fill="#2a3648"/></g>
  <g><path d="m357.32 254.69c0 4.37-24.84 7.9-55.47 7.9-30.65 0-55.48-3.53-55.48-7.9s24.83-7.9 55.48-7.9c30.63 0 55.47 3.53 55.47 7.9" fill="#486e81"/></g>
  <g><path d="m348.68 252.73c0 3.23-20.97 5.86-46.83 5.86-25.87 0-46.84-2.63-46.84-5.86l5.67-7.59h82.32l5.68 7.59" fill="#34455b"/></g>
  <g><path d="m343 245.14c0 3.24-18.43 5.86-41.15 5.86-22.74 0-41.17-2.62-41.17-5.86s18.43-5.86 41.17-5.86c22.72 0 41.15 2.62 41.15 5.86" fill="#486e81"/></g>
  <g><path d="m265.21 378.69c0 4.37-24.84 7.9-55.48 7.9s-55.48-3.53-55.48-7.9v-23.39h110.96v23.39" fill="#507688"/></g>
  <g><path d="m265.21 378.69v-1.69c-62.21 9.99-90.23-9.89-101-21.7h-9.96v23.39c0 4.37 24.84 7.9 55.48 7.9s55.48-3.53 55.48-7.9" fill="#466371"/></g>
  <g><path d="m265.21 355.3c0 4.36-24.84 7.9-55.48 7.9s-55.48-3.54-55.48-7.9 24.84-7.9 55.48-7.9 55.48 3.54 55.48 7.9" fill="#7299a9"/></g>
  <g><path d="m256.57 353.34c0 3.23-20.97 5.86-46.84 5.86s-46.84-2.63-46.84-5.86l5.68-7.59h82.32l5.68 7.59" fill="#507688"/></g>
  <g><path d="m250.89 345.75c0 3.24-18.43 5.86-41.16 5.86s-41.16-2.62-41.16-5.86 18.43-5.86 41.16-5.86 41.16 2.62 41.16 5.86" fill="#7299a9"/></g>
  <g><path d="m265.21 350.88c0 4.36-24.84 7.9-55.48 7.9s-55.48-3.54-55.48-7.9v-23.4h110.96v23.4" fill="#507688"/></g>
  <g><path d="m265.21 350.88v-1.7c-62.21 10-90.23-9.88-101-21.7h-9.96v23.4c0 4.36 24.84 7.9 55.48 7.9s55.48-3.54 55.48-7.9" fill="#466371"/></g>
  <g><path d="m265.21 327.48c0 4.37-24.84 7.91-55.48 7.91s-55.48-3.54-55.48-7.91c0-4.36 24.84-7.9 55.48-7.9s55.48 3.54 55.48 7.9" fill="#7299a9"/></g>
  <g><path d="m256.57 325.52c0 3.24-20.97 5.86-46.84 5.86s-46.84-2.62-46.84-5.86l5.68-7.59h82.32l5.68 7.59" fill="#507688"/></g>
  <g><path d="m250.89 317.93c0 3.24-18.43 5.87-41.16 5.87s-41.16-2.63-41.16-5.87c0-3.23 18.43-5.86 41.16-5.86s41.16 2.63 41.16 5.86" fill="#7299a9"/></g>
  <g><path d="m265.21 323.06c0 4.36-24.84 7.9-55.48 7.9s-55.48-3.54-55.48-7.9v-23.4h110.96v23.4" fill="#507688"/></g>
  <g><path d="m265.21 323.06v-1.69c-62.21 9.99-90.23-9.89-101-21.71h-9.96v23.4c0 4.36 24.84 7.9 55.48 7.9s55.48-3.54 55.48-7.9" fill="#466371"/></g>
  <g><path d="m265.21 299.66c0 4.37-24.84 7.91-55.48 7.91s-55.48-3.54-55.48-7.91c0-4.36 24.84-7.89 55.48-7.89s55.48 3.53 55.48 7.89" fill="#7299a9"/></g>
  <g><path d="m256.57 297.7c0 3.24-20.97 5.86-46.84 5.86s-46.84-2.62-46.84-5.86l5.68-7.59h82.32l5.68 7.59" fill="#507688"/></g>
  <g><path d="m250.89 290.11c0 3.25-18.43 5.87-41.16 5.87s-41.16-2.62-41.16-5.87c0-3.23 18.43-5.86 41.16-5.86s41.16 2.63 41.16 5.86" fill="#7299a9"/></g>
  <g><path d="m265.21 296.82c0 4.37-24.84 7.91-55.48 7.91s-55.48-3.54-55.48-7.91v-23.39h110.96v23.39" fill="#507688"/></g>
  <g><path d="m265.21 296.82v-1.69c-62.21 9.99-90.23-9.88-101-21.7h-9.96v23.39c0 4.37 24.84 7.91 55.48 7.91s55.48-3.54 55.48-7.91" fill="#466371"/></g>
  <g><path d="m265.21 273.43c0 4.36-24.84 7.9-55.48 7.9s-55.48-3.54-55.48-7.9 24.84-7.9 55.48-7.9 55.48 3.54 55.48 7.9" fill="#7299a9"/></g>
  <g><path d="m256.57 271.46c0 3.24-20.97 5.87-46.84 5.87s-46.84-2.63-46.84-5.87l5.68-7.58h82.32l5.68 7.58" fill="#507688"/></g>
  <g><path d="m250.89 263.88c0 3.24-18.43 5.86-41.16 5.86s-41.16-2.62-41.16-5.86 18.43-5.86 41.16-5.86 41.16 2.62 41.16 5.86" fill="#7299a9"/></g>
  <g><path d="m125.86 232.35v-141.78h173.48v141.78c0 1.38 1.12 2.5 2.5 2.5 1.39 0 2.5-1.12 2.5-2.5v-144.28c0-0.66-0.26-1.3-0.73-1.769-0.46-0.465-1.11-0.731-1.77-0.731h-178.48c-0.66 0-1.31 0.266-1.77 0.731-0.47 0.469-0.73 1.109-0.73 1.769v144.28c0 1.38 1.12 2.5 2.5 2.5 1.37 0 2.5-1.12 2.5-2.5" fill="#3e8cb8"/></g>
  <g><path d="m210.1 88.07v158.72c0 1.38 1.12 2.5 2.5 2.5s2.5-1.12 2.5-2.5v-158.72c0-1.382-1.12-2.5-2.5-2.5s-2.5 1.118-2.5 2.5" fill="#3e8cb8"/></g>
  <g><path d="m269.72 95.734c0 31.546-25.58 57.126-57.12 57.126-31.55 0-57.12-25.58-57.12-57.126 0-31.55 25.57-57.129 57.12-57.129 31.54 0 57.12 25.579 57.12 57.129" fill="#3e8cb8"/></g>
  <g><path d="m210.7 70.613l-0.77-3.125c-0.95-1.84-3.41-3.347-5.48-3.347h-19.9c-2.07 0-3.75 1.695-3.75 3.761v42.508h72.08v-39.797h-42.18" fill="#c66b2c"/></g>
  <g><path d="m176.98 119.53h73.3v-47.26h-73.3z" fill="#b7cbdf"/></g>
  <g><path d="m174.16 122.52h73.3v-47.266h-73.3z" fill="#fefaf6"/></g>
  <g><path d="m202.74 85.039l-0.77-3.121c-0.94-1.84-3.41-3.348-5.48-3.348h-19.9c-2.07 0-3.75 1.696-3.75 3.762v42.508h72.07v-39.801h-42.17" fill="#f4b032"/></g>
 </g>
</svg>